<svg xmlns="http://www.w3.org/2000/svg" viewBox="0 0 323014 333333" shape-rendering="geometricPrecision" text-rendering="geometricPrecision" image-rendering="optimizeQuality" fill-rule="evenodd" clip-rule="evenodd"><path d="M189355 27989c9022 0 17835 897 26358 2596-133 1463-204 2944-204 4442 0 26806 21730 48535 48535 48535 10152 0 19574-3119 27365-8447 17827 20906 29346 47355 31605 76403l-53469 1404c-4539-40272-38706-71572-80191-71572-11618 0-22661 2460-32641 6879l-26318-46605c17794-8728 37802-13635 58959-13635zM35028 130842c19345 0 35028 15682 35028 35028 0 19345-15683 35028-35028 35028S0 185215 0 165870s15683-35028 35028-35028zm230252 132436c19345 0 35028 15682 35028 35028 0 19345-15682 35028-35028 35028-19345 0-35028-15682-35028-35028 0-19345 15683-35028 35028-35028zM264045 0c19345 0 35028 15682 35028 35028 0 19345-15683 35028-35028 35028s-35028-15682-35028-35028C229017 15683 244699 0 264045 0zM140474 97840c-19342 14743-31826 38023-31826 64220 0 26479 12752 49979 32449 64696l-28404 45296c-22740-15880-40328-38627-49751-65236 13065-8922 21641-23932 21641-40947 0-17891-9483-33567-23696-42278 8650-28928 26802-53754 50836-70851l28752 45099zm16985 138376c9785 4214 20567 6553 31898 6553 41293 0 75337-31012 80127-71015l53478 1457c-2587 31413-16006 59754-36509 81286-6401-3099-13583-4838-21172-4838-25173 0-45880 19121-48390 43631-8887 1856-18095 2839-27534 2839-20726 0-40355-4703-57874-13103l25976-46812z"/></svg>